<svg width="75" height="80" viewBox="0 0 75 80" fill="none" xmlns="http://www.w3.org/2000/svg">
<g clip-path="url(#clip0_1_319)">
<path d="M40.657 7.17847C21.4952 7.17847 0 25.4112 0 44.4627C0 63.5142 17.295 79.7407 36.4568 80C62.0287 80.3549 75 64.2102 75 45.1587C75 26.1072 59.8188 7.17847 40.657 7.17847ZM11.1731 58.1235L11.132 36.3426L28.8525 41.8833C28.8525 41.8833 28.9211 41.897 28.9486 41.897C29.0447 41.897 29.1407 41.8561 29.2094 41.7878L34.8097 35.9059L34.9332 64.2375L11.1731 58.1235ZM61.9052 27.3627L35.4411 34.6503L35.1254 22.9137L61.9052 27.3627ZM63.8269 56.2539L35.6195 64.2238L35.496 35.8513L41.7277 40.969C41.7277 40.969 41.8649 41.0372 41.9473 41.0372C41.9747 41.0372 42.0159 41.0372 42.0434 41.0236L63.4837 35.0461L63.8269 56.2539ZM34.741 34.6503L12.3399 28.6455L34.4391 22.9547L34.741 34.6503ZM11.1045 29.014L34.4528 35.2781L28.8525 41.16L5.69638 33.927L11.1045 29.014ZM42.0297 40.3276L35.8391 35.2508L63.4151 27.6493L69.2762 32.7261L42.0297 40.3276Z" fill="#F8CCCB"/>
<path d="M64.5132 56.4995C64.5132 56.6633 64.4171 56.7998 64.2661 56.8407L35.4136 64.9881H35.3999C35.3999 64.9881 35.3176 65.0154 35.2764 65.0154C35.2489 65.0154 35.2215 65.0018 35.194 65.0018H35.1391C35.1391 65.0018 35.0979 64.9608 35.0705 64.9472C34.9881 64.8789 34.9332 64.7834 34.9332 64.6742V64.2375L34.8097 35.9059V35.5647C34.8097 35.5647 34.8234 35.4419 34.8646 35.3873C34.8646 35.3873 34.8737 35.3782 34.892 35.36C34.947 35.2645 35.043 35.2235 35.1528 35.2099C35.2352 35.2099 35.3176 35.2508 35.3725 35.3054C35.3999 35.3191 35.4136 35.3327 35.4136 35.36H35.4274C35.4274 35.36 35.496 35.4828 35.496 35.5511V35.8513L35.6195 64.2239L63.8269 56.2539L63.4837 35.0461V34.7595C63.4837 34.5685 63.6347 34.4183 63.8269 34.4183C63.9916 34.4047 64.1701 34.5548 64.1701 34.7459V34.8551L64.5132 56.4995Z" fill="#3A5151"/>
<path d="M35.6058 64.7561C35.5784 64.8516 35.5097 64.9472 35.4137 64.9881H35.3999C35.3999 64.9881 35.3176 65.0154 35.2764 65.0154C35.2489 65.0154 35.2215 65.0018 35.194 65.0018H35.1391L10.7477 58.7104C10.5967 58.6694 10.4869 58.533 10.4869 58.3828L10.4457 36.1379V35.9059C10.4457 35.7148 10.5967 35.5647 10.7888 35.5647C10.981 35.5647 11.132 35.7148 11.132 35.9059V36.3426L11.1732 58.1236L34.9332 64.2375L35.3587 64.3467C35.5509 64.3876 35.6607 64.5787 35.6058 64.7561Z" fill="#3A5151"/>
<path d="M63.7445 27.0488L63.7171 27.0215C63.7171 27.0215 63.6759 26.9942 63.6484 26.9806C63.621 26.9669 63.5935 26.9533 63.5661 26.9533C63.5661 26.9533 63.5569 26.9487 63.5386 26.9396H63.4975L34.9469 22.2041C34.9469 22.2041 34.8646 22.1768 34.8234 22.1768H34.7548C34.7548 22.1768 34.6587 22.1904 34.6312 22.2041L10.9124 28.3044C10.9124 28.3044 10.8986 28.3044 10.8849 28.318C10.8437 28.3317 10.8163 28.3453 10.7751 28.3862L10.7339 28.4272C10.7339 28.4272 10.6653 28.5637 10.6653 28.6319C10.6516 28.782 10.7614 28.9185 10.9124 28.9594L11.1045 29.014L34.4528 35.2781L34.8646 35.3873L34.9607 35.4146H35.0156L35.194 35.4282L35.2901 35.4009L35.4136 35.36H35.4274L35.8391 35.2508L63.4151 27.6493L63.5798 27.6084C63.7308 27.5538 63.8406 27.4173 63.8269 27.2535C63.8269 27.1716 63.7994 27.1034 63.7445 27.0488ZM35.4411 34.6503L35.1117 34.7458L34.7411 34.6503L12.3399 28.6455L34.4391 22.9546L34.7822 22.8591L35.1254 22.9137L61.9052 27.3627L35.4411 34.6503Z" fill="#3A5151"/>
<path d="M35.4548 34.9233V35.087C35.4548 35.087 35.4274 35.2371 35.3725 35.3054C35.3725 35.319 35.3587 35.319 35.3587 35.3327L35.2901 35.4009L35.1391 35.5647L34.8097 35.9059L29.2094 41.7878C29.1408 41.856 29.0447 41.897 28.9486 41.897C28.9211 41.897 28.88 41.8833 28.8525 41.8833L11.132 36.3426L10.4457 36.1379L4.914 34.4047C4.80419 34.3637 4.7081 34.2682 4.68065 34.1454C4.6532 34.0225 4.69438 33.8997 4.79046 33.8178L10.7339 28.4272L10.7751 28.3862C10.7751 28.3862 10.8437 28.3317 10.8849 28.318C10.8849 28.318 10.894 28.3135 10.9123 28.3044C11.0359 28.2634 11.1731 28.3044 11.2555 28.3999C11.379 28.55 11.379 28.7547 11.2281 28.8912L11.1045 29.014L5.69639 33.927L28.8525 41.16L34.4528 35.2781L34.7548 34.9642V34.6503L34.4391 22.9546V22.5179C34.4116 22.3815 34.494 22.2586 34.6312 22.2041C34.6587 22.1904 34.7136 22.1768 34.7548 22.1768H34.8234C34.8234 22.1768 34.9058 22.1904 34.9469 22.2041C35.043 22.2586 35.0979 22.3678 35.1117 22.5043V22.9137L35.4411 34.6503V34.9233H35.4548Z" fill="#3A5151"/>
<path d="M70.3194 32.9581C70.2919 33.0809 70.1958 33.1765 70.0723 33.2174L64.17 34.8551L63.4837 35.0461L42.0434 41.0236C42.0434 41.0236 41.9747 41.0373 41.9473 41.0373C41.8649 41.0373 41.7963 41.0236 41.7277 40.969L35.496 35.8513L35.1391 35.5647L34.9607 35.4146L34.892 35.36C34.741 35.2236 34.7273 35.0189 34.8371 34.8824C34.9058 34.8005 35.0156 34.7459 35.1116 34.7459C35.194 34.7459 35.2626 34.7732 35.3313 34.8278L35.4548 34.9233L35.8391 35.2509L42.0297 40.3276L69.2762 32.7261L63.4151 27.6494L63.2641 27.5265C63.1268 27.4037 63.0994 27.199 63.2229 27.0489C63.2916 26.9806 63.4014 26.9397 63.4974 26.9397H63.5386C63.5386 26.9397 63.5524 26.9397 63.5661 26.9533C63.5935 26.9533 63.621 26.967 63.6484 26.9806C63.6759 26.9943 63.6896 27.0079 63.7171 27.0216L63.7445 27.0489L70.2096 32.6306C70.3056 32.7125 70.3468 32.8353 70.3194 32.9581Z" fill="#3A5151"/>
<path d="M36.8274 5.10408C36.6352 5.48621 36.1685 5.64997 35.7842 5.47256C35.3999 5.29515 35.2352 4.81749 35.4136 4.43537C35.6058 4.05325 36.0725 3.88948 36.4568 4.08054C36.8411 4.2716 37.0058 4.73561 36.8274 5.11773" fill="#3A5151"/>
<path d="M37.4177 10.8632C37.2804 11.1362 36.951 11.259 36.6764 11.1225C36.4019 10.9861 36.2921 10.6585 36.4156 10.3856C36.5529 10.1126 36.8823 10.0035 37.1569 10.1263C37.4314 10.2628 37.5412 10.5903 37.4177 10.8632Z" fill="#3A5151"/>
<path d="M46.8064 5.81365C46.5318 6.37318 45.8593 6.60519 45.3102 6.33224C44.7474 6.0593 44.5141 5.39058 44.7886 4.8447C45.0631 4.28516 45.7357 4.05316 46.2848 4.3261C46.8475 4.59905 47.0809 5.26776 46.8064 5.81365Z" fill="#3A5151"/>
<path d="M29.7721 13.5654C30.2525 13.9749 30.9526 14.7118 31.1859 15.6944C31.584 15.1758 32.2291 14.4662 33.0527 13.9476C32.6958 13.5381 32.0781 12.7193 31.9546 11.6685C31.4467 12.3235 30.6643 13.1833 29.7721 13.5791M30.9114 16.7998C30.9114 16.7998 30.8977 16.7998 30.8839 16.7998C30.7604 16.7589 30.6643 16.6361 30.6781 16.4996C30.7741 14.8892 29.0172 13.7292 28.9897 13.7156C28.8937 13.6473 28.8387 13.5245 28.8662 13.4153C28.8937 13.2925 28.976 13.2106 29.0995 13.1833C30.6369 12.8831 32.0507 10.5221 32.0644 10.4948C32.133 10.372 32.2977 10.3174 32.435 10.372C32.5723 10.4266 32.6409 10.5631 32.6135 10.7132C32.2291 12.4191 33.7253 13.7838 33.7527 13.7974C33.8214 13.8657 33.8625 13.9612 33.8488 14.0567C33.8488 14.1523 33.7802 14.2342 33.6978 14.2751C32.2428 15.053 31.2546 16.6634 31.2546 16.677C31.1859 16.7862 31.0624 16.8408 30.9389 16.8135" fill="#3A5151"/>
<path d="M40.2727 2.27905C40.5609 2.53835 40.9041 2.94777 41.0825 3.46636C41.3433 3.15248 41.7002 2.784 42.1395 2.48376C41.9198 2.21082 41.6179 1.77411 41.4943 1.21457C41.1786 1.59669 40.7531 2.0334 40.259 2.27905M40.8355 4.50355C40.8355 4.50355 40.8217 4.50355 40.808 4.50355C40.6845 4.46261 40.5884 4.33978 40.6021 4.20331C40.6707 3.17977 39.5315 2.44282 39.5177 2.42917C39.4217 2.36094 39.3668 2.23811 39.3942 2.12894C39.4217 2.00611 39.504 1.92423 39.6276 1.89693C40.4511 1.73317 41.2884 0.573153 41.5355 0.150089C41.6041 0.0272638 41.7551 -0.0273251 41.9061 0.0272638C42.0434 0.0818527 42.112 0.218325 42.0845 0.368444C41.8375 1.44657 42.7983 2.32 42.812 2.33364C42.8807 2.40188 42.9218 2.49741 42.9081 2.57929C42.9081 2.67482 42.8395 2.75671 42.7571 2.79765C41.81 3.3026 41.1649 4.35343 41.1649 4.36708C41.0963 4.47626 40.9727 4.53085 40.8492 4.50355" fill="#3A5151"/>
<path d="M41.6041 13.0604C41.9335 13.3607 42.3453 13.8383 42.5375 14.4388C42.8257 14.084 43.2513 13.6473 43.7591 13.3061C43.5121 13.0059 43.1414 12.4873 43.0179 11.8322C42.661 12.2689 42.1669 12.7875 41.5904 13.0741M42.2904 15.4897C42.2904 15.4897 42.2767 15.4897 42.263 15.4897C42.1394 15.4487 42.0433 15.3259 42.0571 15.1894C42.1257 14.043 40.8629 13.2106 40.8492 13.2106C40.7531 13.1423 40.6982 13.0195 40.7256 12.9103C40.7531 12.7875 40.8354 12.7056 40.959 12.6783C42.0571 12.46 43.0728 10.7541 43.0865 10.7404C43.1552 10.6176 43.3199 10.563 43.4434 10.6176C43.5807 10.6722 43.6493 10.8087 43.6219 10.9588C43.3473 12.1734 44.418 13.1423 44.4317 13.156C44.5003 13.2242 44.5415 13.3197 44.5278 13.4153C44.5278 13.5108 44.4592 13.5927 44.3768 13.6336C43.3336 14.1932 42.6061 15.3668 42.6061 15.3668C42.5375 15.476 42.414 15.5306 42.2904 15.5033" fill="#3A5151"/>
</g>
<defs>
<clipPath id="clip0_1_319">
<rect width="75" height="80" fill="white"/>
</clipPath>
</defs>
</svg>
