<svg width="29" height="32" viewBox="0 0 29 32" fill="none" xmlns="http://www.w3.org/2000/svg">
<path d="M17.2486 19.3707C17.5872 18.6979 18.4093 18.4095 19.1105 18.7219C19.8117 19.0343 20.0776 19.8754 19.7391 20.5723C19.4006 21.2452 18.5785 21.5336 17.9015 21.2212C17.2245 20.9088 16.9343 20.0677 17.2486 19.3707Z" fill="#3A5151"/>
<path d="M13.4289 10.5761C13.6707 10.0954 14.251 9.87913 14.7346 10.1194C15.2182 10.3598 15.4358 10.9365 15.194 11.4172C14.9522 11.8978 14.3719 12.1141 13.8883 11.8738C13.4047 11.6335 13.1871 11.0567 13.4289 10.5761Z" fill="#3A5151"/>
<path d="M7.81934 15.5257C8.30293 14.5404 9.48772 14.1319 10.4791 14.6125C11.4704 15.0932 11.8815 16.2707 11.3979 17.256C10.9143 18.2413 9.72951 18.6499 8.73815 18.1692C7.74679 17.6886 7.33575 16.511 7.81934 15.5257Z" fill="#3A5151"/>
<path d="M26.8487 5.14283C25.8573 4.61413 24.3582 3.62882 23.5603 2.04272C23.0767 3.10012 22.2304 4.56606 21.0456 5.79169C21.8435 6.36845 23.1976 7.54602 23.8262 9.30035C24.4307 7.9786 25.4463 6.20024 26.8487 5.14283ZM23.6328 0.024037C23.6328 0.024037 23.657 0.024037 23.6812 0.024037C23.9229 0.024037 24.1164 0.216293 24.1648 0.456612C24.6483 3.26834 28.1302 4.56606 28.1785 4.59009C28.372 4.66219 28.5171 4.85445 28.5171 5.0467C28.5171 5.26299 28.3962 5.45524 28.2027 5.55137C25.6639 6.68087 24.1889 11.295 24.1648 11.3431C24.0922 11.5834 23.8504 11.7516 23.5845 11.7035C23.3427 11.6555 23.1492 11.4392 23.1492 11.1989C23.1492 8.09875 20.0059 6.34442 19.9817 6.32039C19.8366 6.2483 19.7399 6.08008 19.7157 5.91185C19.7157 5.74363 19.7641 5.5754 19.885 5.45524C22.0853 3.55672 23.1492 0.384514 23.1492 0.360482C23.2218 0.144195 23.4152 0 23.657 0" fill="#3A5151"/>
<path d="M11.7357 28.1416C12.3402 28.478 13.0898 29.0548 13.5976 29.8719C13.9119 29.247 14.3955 28.454 15.0242 27.757C14.5406 27.3725 13.8394 26.7237 13.4041 25.8105C13.0173 26.6035 12.4611 27.4927 11.7116 28.1416M13.5734 31.7704H13.525C13.2832 31.7704 13.0898 31.5781 13.0414 31.3378C12.7513 29.5594 10.5026 28.7183 10.4784 28.7183C10.285 28.6462 10.1399 28.454 10.1399 28.2377C10.1399 28.0214 10.2608 27.8291 10.4542 27.733C11.8083 27.1322 12.7996 24.8251 13.0656 23.96C13.1382 23.7197 13.38 23.5755 13.6459 23.5995C13.8877 23.6476 14.0812 23.8639 14.0812 24.1042C14.0812 26.0508 16.0881 27.2043 16.1122 27.2043C16.2573 27.2764 16.354 27.4446 16.3782 27.6128C16.3782 27.7811 16.3299 27.9493 16.209 28.0695C14.7824 29.3191 14.0812 31.3859 14.0812 31.3859C14.0086 31.6021 13.8152 31.7463 13.5734 31.7463" fill="#3A5151"/>
<path d="M5.93311 6.17666C5.2319 5.84022 4.2889 5.23941 3.66023 4.30217C3.3459 5.04716 2.83813 5.9844 2.13693 6.82552C2.71723 7.21003 3.5877 7.93099 4.11965 8.96436C4.50652 8.05115 5.11101 6.92165 5.93311 6.15263M3.58769 2.37962H3.63606C3.87786 2.37962 4.07129 2.54784 4.14383 2.78816C4.57906 4.75877 7.14209 5.55183 7.16627 5.55183C7.35971 5.62392 7.50477 5.79214 7.52895 6.00843C7.52895 6.22472 7.43224 6.41698 7.2388 6.51311C5.4737 7.42632 4.57906 10.8148 4.57906 10.8388C4.50652 11.0792 4.2889 11.2474 4.02293 11.2234C3.75695 11.1993 3.56352 10.983 3.53934 10.7427C3.41844 8.55582 1.0972 7.40229 1.07302 7.40229C0.927944 7.33019 0.807049 7.186 0.78287 7.01778C0.75869 6.84955 0.807052 6.68133 0.92795 6.56117C2.42708 5.09523 3.07993 2.76413 3.07993 2.7401C3.12828 2.52381 3.34589 2.37962 3.56351 2.35559" fill="#3A5151"/>
</svg>
