<svg width="87" height="115" viewBox="0 0 87 115" fill="none" xmlns="http://www.w3.org/2000/svg">
<g clip-path="url(#clip0_1_266)">
<path d="M26.7337 41.9937C26.8992 41.842 33.2176 36.1444 33.3832 36.034C34.7075 34.9994 30.8724 22.1005 32.2933 21.2452C33.4659 20.5278 34.6799 19.8794 35.9077 19.3C38.4048 18.086 40.9845 17.1479 43.6195 16.5271C43.7298 16.4857 43.854 16.4581 43.9782 16.4443C45.4681 16.0856 46.9718 15.8511 48.4893 15.7132C49.4412 15.6166 50.3931 15.5752 51.345 15.5752C51.6071 15.5752 51.8554 15.5752 52.1176 15.589C52.9177 15.6028 53.7041 15.658 54.4766 15.7407C55.0422 15.7959 55.5941 15.8649 56.1321 15.9615C56.3666 16.0029 56.6011 16.0442 56.8357 16.0856C58.298 16.3477 59.7465 16.734 61.1399 17.2031C63.7334 18.086 66.2029 19.2862 68.5205 20.7761C70.0242 21.7418 71.459 22.8317 72.8247 24.0043C73.2524 24.3768 73.6663 24.7631 74.0801 25.1493C75.5149 26.5151 76.8668 27.9912 78.0809 29.5777C83.4335 36.4341 86.6755 45.0977 86.6755 53.8855C86.6755 66.9913 79.1017 77.3518 68.2032 82.7183C69.3069 75.5584 68.217 62.9216 66.2304 53.6786C65.3199 53.4993 64.4094 53.2923 63.5127 53.0854C63.4161 53.0578 63.3334 53.044 63.2368 53.0164C63.4437 52.575 63.5679 52.1335 63.6507 51.7472C63.7886 51.0436 63.2644 50.3815 62.5608 50.3125C59.65 50.0228 52.3797 49.2364 51.1657 48.4501C50.4759 48.0086 48.7514 47.2775 46.8063 46.7118C46.1855 46.5325 45.5509 46.3669 44.9301 46.229C44.7507 46.1876 44.5576 46.1462 44.3782 46.1186C44.1161 46.0772 43.854 46.0221 43.5919 45.9945C42.2951 45.8151 41.1225 45.8151 40.3223 46.1462C40.2534 46.1738 40.1844 46.2014 40.1154 46.229C39.0945 46.6704 37.4804 47.4568 35.618 48.4363C34.8869 48.8226 34.1005 49.2088 33.3004 49.6227C33.3004 49.6227 34.1695 48.5191 35.2594 47.1395C36.501 45.5944 38.0323 43.6906 38.9566 42.5318C39.2739 42.1455 39.5084 41.842 39.6601 41.6626C39.8395 41.4557 40.3637 41.097 41.1363 40.6418C42.3779 39.9106 44.2541 38.9449 46.3648 37.924C46.7097 37.7585 47.0546 37.593 47.4133 37.4136C47.5374 37.3584 47.6616 37.3032 47.7858 37.2481C48.5169 36.9032 49.2619 36.5583 50.0068 36.2272C50.0758 36.1996 50.131 36.172 50.2 36.1444C51.0139 35.7719 51.8279 35.4132 52.6142 35.0684C52.7246 35.027 52.8349 34.9856 52.9315 34.9442C53.6213 34.6407 54.2835 34.3648 54.9181 34.1165C55.7734 33.7716 56.5873 33.4543 57.3185 33.1922C57.7462 33.0404 58.1462 32.9025 58.5049 32.7921C58.9326 32.6541 59.3327 32.5024 59.6913 32.3092V32.0471C59.7189 32.1575 59.7465 32.2265 59.8017 32.2403C60.864 31.7298 61.6365 31.0262 62.2021 30.2951C62.9057 29.3846 63.2782 28.4051 63.4713 27.5912C63.5541 27.2325 63.4575 26.9014 63.2368 26.6668C62.9885 26.3771 62.5884 26.2392 62.1745 26.3495C62.147 26.3495 62.1194 26.3633 62.0918 26.3771C61.9538 26.4323 61.8159 26.4737 61.6779 26.5289C61.6503 26.5427 61.6089 26.5565 61.5813 26.5703C61.4572 26.6117 61.333 26.6531 61.2089 26.6944C60.8916 26.8186 60.5467 26.9428 60.188 27.0669C58.8084 27.5636 57.2081 28.1292 55.6768 28.6258C54.7939 28.9155 53.9386 29.1914 53.166 29.426C52.0486 29.7571 51.1105 29.9916 50.5449 30.0606C50.5173 30.0606 50.4897 30.0744 50.4483 30.0744C49.7309 30.1709 48.4893 30.4882 47.0408 30.8883C45.5371 31.3298 43.785 31.8678 42.1158 32.3782C39.6188 33.1646 37.3149 33.8819 36.3216 34.1165C36.2113 34.1441 36.1147 34.1716 36.0319 34.1854C35.5077 34.282 34.0591 35.3995 32.2519 36.9997C28.265 40.559 22.4846 46.4911 20.8982 49.0019C18.6081 52.6715 20.7464 57.0999 20.7464 57.0999C20.7464 57.0999 20.3877 62.9079 21.4776 64.0115C21.4776 64.0115 21.0361 68.4951 22.2501 69.4883C22.8571 69.985 26.8303 75.8619 30.693 81.9044C19.8911 76.2758 12 66.1636 12 53.651C12 42.5456 18.4839 31.716 27.658 24.4733" fill="#F8CCCB"/>
<path d="M26.7337 41.9938C26.1819 38.9312 27.6166 20.3072 28.8168 18.6655C30.017 17.0238 34.1833 6.71851 34.1833 6.71851C34.1833 6.71851 38.3496 10.2226 36.8182 15.8098C35.2869 21.397 34.404 25.8944 34.404 25.8944L35.2869 34.5442" stroke="#3A5151" stroke-width="0.5" stroke-linecap="round" stroke-linejoin="round"/>
<path d="M55.6768 28.6258C54.7939 28.9155 53.9386 29.1915 53.166 29.426C52.0486 29.7571 51.1105 29.9916 50.5449 30.0606C50.5173 30.0606 50.4897 30.0744 50.4483 30.0744C49.7309 30.1709 48.4893 30.4882 47.0408 30.8883C45.5371 31.3298 43.785 31.8678 42.1158 32.3782C39.6188 33.1646 37.3149 33.882 36.3216 34.1165C36.2113 34.1441 36.1147 34.1717 36.0319 34.1855C35.5077 34.282 34.0591 35.3995 32.2519 36.9998C30.9551 32.8197 29.4928 28.2396 28.1546 24.0871C28.0443 23.756 27.9477 23.4249 27.8373 23.0938C25.9335 17.1893 24.3333 12.4022 23.9332 11.3676C27.4924 7.15991 33.5763 6.35977 38.4323 3.76619C41.1501 2.31766 43.6747 0.220729 46.7373 0C46.9442 0.427663 47.1512 0.855326 47.3443 1.28299C48.1168 2.95226 48.779 4.64911 49.386 6.38736C50.4483 9.39479 51.3036 12.485 52.1176 15.589C52.6694 17.6997 53.1936 19.8105 53.7454 21.9212C53.773 22.0453 53.8144 22.1695 53.842 22.2937C53.8834 22.4316 53.911 22.5696 53.9524 22.7075C54.4904 24.6941 55.0422 26.6807 55.6768 28.6258Z" fill="#3A5151"/>
<path d="M60.5053 39.7312C59.981 40.1175 59.443 40.4624 58.8774 40.7935C58.4911 41.028 58.091 41.2488 57.6772 41.4557C57.0426 41.8006 56.408 42.1317 55.7596 42.449C55.5802 42.5455 55.4009 42.6283 55.2216 42.7111C54.587 43.0422 53.9524 43.3595 53.304 43.6768C51.1657 44.739 48.9998 45.7737 46.8063 46.7118C46.1855 46.5325 45.5509 46.3669 44.9301 46.229C44.7507 46.1876 44.5576 46.1462 44.3782 46.1186C44.1161 46.0772 43.854 46.022 43.5919 45.9944C42.2951 45.8151 41.1225 45.8151 40.3223 46.1462C40.2534 46.1738 40.1844 46.2014 40.1154 46.229C39.0945 46.6704 37.4804 47.4568 35.618 48.4363C35.5077 48.05 35.3973 47.6223 35.2594 47.1395C36.501 45.5944 38.0323 43.6906 38.9566 42.5318C39.2739 42.1455 39.5084 41.842 39.6601 41.6626C39.8395 41.4557 40.3637 41.097 41.1363 40.6418C42.3779 39.9106 44.2541 38.9449 46.3648 37.924C46.7097 37.7585 47.0546 37.5929 47.4133 37.4136C47.5374 37.3584 47.6616 37.3032 47.7857 37.248C48.5169 36.9032 49.2619 36.5583 50.0068 36.2272C50.0758 36.1996 50.131 36.172 50.2 36.1444C51.0139 35.7719 51.8279 35.4132 52.6142 35.0683C52.7246 35.027 52.8349 34.9856 52.9315 34.9442C53.6213 34.6407 54.2835 34.3648 54.9181 34.1164C55.7734 33.7716 56.5873 33.4543 57.3185 33.1921C57.8841 34.6131 58.5049 36.0064 59.2085 37.3584C59.6086 38.1586 60.0362 38.9587 60.5053 39.7312Z" fill="#3A5151"/>
<path d="M28.2926 8.47046L28.7065 9.78104" stroke="#FFF6EF" stroke-width="0.5" stroke-linecap="round" stroke-linejoin="round"/>
<path d="M29.5066 12.3469L30.4723 15.4233L34.7213 29.012L35.5077 31.5228" stroke="#FFF6EF" stroke-width="0.5" stroke-linecap="round" stroke-linejoin="round"/>
<path d="M35.9077 32.8059L36.3216 34.1165" stroke="#FFF6EF" stroke-width="0.5" stroke-linecap="round" stroke-linejoin="round"/>
<path d="M40.1154 46.229L39.7015 44.9185" stroke="#FFF6EF" stroke-width="0.5" stroke-linecap="round" stroke-linejoin="round"/>
<path d="M39.3704 43.8423L38.9566 42.5317" stroke="#FFF6EF" stroke-width="0.5" stroke-linecap="round" stroke-linejoin="round"/>
<path d="M69.8587 10.7605C69.5276 14.099 69.0034 17.4376 68.5205 20.7761C68.2584 22.5144 67.9963 24.2526 67.7756 25.9908C67.6928 26.6254 67.61 27.26 67.541 27.8946C67.4996 28.2395 67.4721 28.5706 67.4445 28.9017C66.9616 33.468 66.7961 38.0206 67.4169 42.5731C66.4098 42.8077 65.4027 42.9594 64.368 43.056C63.5817 43.1388 62.7816 43.1939 61.9814 43.2353C60.657 43.3181 59.3465 43.4147 58.0221 43.4698C57.4013 43.525 56.7805 43.5526 56.1459 43.5802H56.1321C55.194 43.6216 54.2421 43.663 53.304 43.6768C50.4759 43.732 47.6478 43.6768 44.8473 43.3733C43.4401 43.2353 42.0468 43.0284 40.6672 42.7525C40.7776 42.7525 40.9431 41.9799 41.1363 40.6418C42.3779 39.9106 44.2541 38.9449 46.3648 37.924C46.7097 37.7585 47.0546 37.5929 47.4133 37.4136C47.5374 37.3584 47.6616 37.3032 47.7858 37.248C48.5169 36.9031 49.2619 36.5583 50.0068 36.2272C50.0758 36.1996 50.131 36.172 50.2 36.1444C51.0139 35.7719 51.8279 35.4132 52.6142 35.0683C52.7246 35.027 52.8349 34.9856 52.9315 34.9442C53.6213 34.6407 54.2835 34.3648 54.9181 34.1164C55.7734 33.7715 56.5873 33.4543 57.3185 33.1921C57.7462 33.0404 58.1462 32.9024 58.5049 32.7921C58.9326 32.6541 59.3327 32.5024 59.6913 32.3092V32.0471C59.7189 32.1575 59.7465 32.2264 59.8017 32.2402C60.864 31.7298 61.6365 31.0262 62.2021 30.2951C62.9057 29.3846 63.2782 28.4051 63.4713 27.5911C63.5403 27.3152 63.5817 27.0531 63.6093 26.8324C63.6369 26.6806 63.6507 26.5427 63.6645 26.4185C63.6921 26.0184 63.6783 25.7839 63.6783 25.7839C63.6783 25.7839 63.0989 26.0046 62.1746 26.3495C62.147 26.3495 62.1194 26.3633 62.0918 26.3771C61.9538 26.4323 61.8159 26.4737 61.6779 26.5289C61.6503 26.5427 61.6089 26.5565 61.5813 26.5703C61.4572 26.6116 61.333 26.653 61.2089 26.6944C60.8916 26.8186 60.5467 26.9427 60.188 27.0669C58.8084 27.5635 57.2081 28.1292 55.6768 28.6258C54.7939 28.9155 53.9386 29.1914 53.166 29.4259C52.0486 29.757 51.1105 29.9916 50.5449 30.0605C50.5173 30.0605 50.4897 30.0743 50.4483 30.0743C49.7309 30.1709 48.4893 30.4882 47.0408 30.8883C45.5371 31.3297 43.785 31.8678 42.1158 32.3782C42.6124 27.5635 43.1504 21.7556 43.6195 16.5271C44.2403 9.47752 44.7093 3.46265 44.7507 2.23484C45.5923 1.80718 46.4614 1.48988 47.3443 1.28295C51.6761 0.220687 56.5184 1.28295 61.0709 0.855284C64.1197 0.579372 67.2651 -0.358728 70.176 0.620759C70.3829 4.00068 70.2174 7.3806 69.8587 10.7605Z" fill="#3A5151"/>
<path d="M49.8827 1.25537L49.3861 6.38733L47.0408 30.8883" stroke="#FFF6EF" stroke-width="0.5" stroke-linecap="round" stroke-linejoin="round"/>
<path d="M46.3648 37.9241L46.1303 40.4487L45.8544 43.3181" stroke="#FFF6EF" stroke-width="0.5" stroke-linecap="round" stroke-linejoin="round"/>
<path d="M55.87 1.25537L53.9248 21.4935L53.842 22.2936L53.166 29.426" stroke="#FFF6EF" stroke-width="0.5" stroke-linecap="round" stroke-linejoin="round"/>
<path d="M52.6142 35.0684L51.8279 43.3181" stroke="#FFF6EF" stroke-width="0.5" stroke-linecap="round" stroke-linejoin="round"/>
<path d="M62.6712 1.25537L61.9538 8.70499L61.54 12.9816L61.3192 15.2579L60.188 27.0669" stroke="#FFF6EF" stroke-width="0.5" stroke-linecap="round" stroke-linejoin="round"/>
<path d="M83.5025 15.3958C82.2471 20.2933 80.2468 24.9562 78.0809 29.5777C74.5216 37.2618 70.5623 44.808 69.0585 53.0716C68.962 53.6234 68.4653 53.9959 67.9135 53.9269C67.3479 53.8717 66.7961 53.7889 66.2304 53.6786C65.3199 53.4992 64.4094 53.2923 63.5127 53.0854C63.4161 53.0578 63.3334 53.044 63.2368 53.0164C63.4437 52.5749 63.5679 52.1335 63.6507 51.7472C63.7886 51.0436 63.2644 50.3814 62.5608 50.3125C59.65 50.0228 52.3797 49.2364 51.1657 48.4501C50.4759 48.0086 48.7514 47.2774 46.8063 46.7118C46.1855 46.5325 45.5509 46.3669 44.9301 46.229C44.2679 46.091 43.923 45.3736 44.2127 44.7666C44.4058 44.3666 44.6128 43.8975 44.8473 43.3733C45.2336 42.5318 45.6612 41.5385 46.1303 40.4486C46.489 39.6209 46.8614 38.738 47.2615 37.7999C47.3581 37.5515 47.5374 37.3584 47.7857 37.248C48.5169 36.9032 49.2619 36.5583 50.0068 36.2272C50.0758 36.1996 50.131 36.172 50.2 36.1444C51.0139 35.7719 51.8279 35.4132 52.6142 35.0683C52.7246 35.027 52.8349 34.9856 52.9315 34.9442C53.6213 34.6407 54.2835 34.3648 54.9181 34.1164C55.7734 33.7716 56.5873 33.4543 57.3185 33.1921C57.7462 33.0404 58.1462 32.9024 58.5049 32.7921C58.9326 32.6541 59.3327 32.5024 59.6913 32.3092V32.0471C59.7189 32.1575 59.7465 32.2265 59.8017 32.2402C60.864 31.7298 61.6365 31.0262 62.2021 30.2951C62.9057 29.3846 63.2782 28.4051 63.4713 27.5911C63.5541 27.2324 63.4575 26.9014 63.2368 26.6668C62.9885 26.3771 62.5884 26.2392 62.1745 26.3495C62.147 26.3495 62.1194 26.3633 62.0918 26.3771C61.9538 26.4323 61.8159 26.4737 61.6779 26.5289C61.5261 26.5841 61.3882 26.6392 61.2226 26.6944C60.9053 26.8186 60.5605 26.9427 60.2018 27.0669C58.8222 27.5635 57.2219 28.1292 55.6906 28.6258C54.8077 28.9155 53.9524 29.1914 53.1798 29.4259C52.0624 29.757 51.1243 29.9916 50.5587 30.0605C50.5311 30.0605 50.5035 30.0743 50.4621 30.0743C51.5795 27.3566 52.7108 24.5561 53.7592 21.9211C53.8282 21.7832 53.8834 21.6314 53.9386 21.4935C54.7387 19.5207 55.4837 17.6445 56.1459 15.9615C57.3185 12.9678 58.2428 10.595 58.6705 9.42235C58.8084 9.06366 59.1119 8.78775 59.4982 8.74636C60.3259 8.64979 61.1537 8.636 61.9676 8.70498C64.6164 8.91191 67.2375 9.85001 69.8725 10.7605C71.528 11.3399 73.211 11.9056 74.8941 12.2504C77.6118 12.8023 80.5779 12.8574 82.9645 14.1956C83.3922 14.4301 83.6267 14.9268 83.5163 15.3958H83.5025Z" fill="#3A5151"/>
<path d="M60.8364 15.1337C61.7745 15.382 62.6988 15.6304 63.6369 15.8649C63.4575 15.0509 63.5679 12.5677 62.4781 12.416C61.5124 12.278 60.3121 14.982 60.8502 15.1199L60.8364 15.1337Z" stroke="#FFF6EF" stroke-width="0.21" stroke-linecap="round" stroke-linejoin="round"/>
<path d="M69.3069 18.2792C70.245 18.5276 71.1693 18.7759 72.1074 19.0104C71.928 18.1965 72.0384 15.7133 70.9485 15.5615C69.9828 15.4235 68.7826 18.1275 69.3207 18.2654L69.3069 18.2792Z" stroke="#FFF6EF" stroke-width="0.21" stroke-linecap="round" stroke-linejoin="round"/>
<path d="M72.8385 24.8183C73.7766 25.0666 74.7009 25.3149 75.639 25.5495C75.4597 24.7355 75.5701 22.2523 74.4802 22.1006C73.5145 21.9626 72.3143 24.6665 72.8523 24.8045L72.8385 24.8183Z" stroke="#FFF6EF" stroke-width="0.21" stroke-linecap="round" stroke-linejoin="round"/>
<path d="M63.4575 22.1281C64.3956 22.3764 65.3199 22.6247 66.258 22.8593C66.0787 22.0453 66.1891 19.5621 65.0992 19.4104C64.1335 19.2724 62.9333 21.9764 63.4713 22.1143L63.4575 22.1281Z" stroke="#FFF6EF" stroke-width="0.21" stroke-linecap="round" stroke-linejoin="round"/>
<path d="M57.2219 25.2873C58.16 25.5356 59.0843 25.7839 60.0224 26.0185C59.8431 25.2045 59.9535 22.7213 58.8636 22.5696C57.8979 22.4316 56.6977 25.1355 57.2357 25.2735L57.2219 25.2873Z" stroke="#FFF6EF" stroke-width="0.21" stroke-linecap="round" stroke-linejoin="round"/>
<path d="M65.6924 28.4326C66.6305 28.6809 67.5548 28.9292 68.4929 29.1637C68.3136 28.3498 68.424 25.8666 67.3341 25.7148C66.3684 25.5769 65.1682 28.2808 65.7062 28.4188L65.6924 28.4326Z" stroke="#FFF6EF" stroke-width="0.21" stroke-linecap="round" stroke-linejoin="round"/>
<path d="M69.2241 34.9719C70.1622 35.2202 71.0865 35.4685 72.0246 35.703C71.8452 34.8891 71.9556 32.4059 70.8658 32.2541C69.9001 32.1162 68.6999 34.8201 69.2379 34.9581L69.2241 34.9719Z" stroke="#FFF6EF" stroke-width="0.21" stroke-linecap="round" stroke-linejoin="round"/>
<path d="M62.6436 33.0129C61.7055 32.7784 60.7674 32.5301 59.8431 32.2817C59.8293 32.2817 59.8155 32.2817 59.8017 32.2403C60.864 31.7299 61.6365 31.0263 62.2021 30.2952C62.5332 31.1229 62.5194 32.4611 62.6436 33.0129Z" stroke="#FFF6EF" stroke-width="0.21" stroke-linecap="round" stroke-linejoin="round"/>
<path d="M55.4837 37.0963C54.5456 36.848 53.6213 36.5997 52.6832 36.3651C52.4211 36.2962 52.5728 35.6064 52.9315 34.9442C53.6213 34.6407 54.2835 34.3648 54.9181 34.1165C55.3733 34.9166 55.3457 36.4755 55.4837 37.0963Z" stroke="#FFF6EF" stroke-width="0.21" stroke-linecap="round" stroke-linejoin="round"/>
<path d="M61.1537 39.5104C62.0918 39.7588 63.0161 40.0071 63.9542 40.2416C63.7748 39.4277 63.8852 36.9445 62.7953 36.7927C61.8297 36.6547 60.6294 39.3587 61.1675 39.4966L61.1537 39.5104Z" stroke="#FFF6EF" stroke-width="0.21" stroke-linecap="round" stroke-linejoin="round"/>
<path d="M64.6853 46.0497C65.6234 46.2981 66.5477 46.5464 67.4858 46.7809C67.3065 45.967 67.4169 43.4838 66.327 43.332C65.3613 43.1941 64.1611 45.898 64.6991 46.0359L64.6853 46.0497Z" stroke="#FFF6EF" stroke-width="0.21" stroke-linecap="round" stroke-linejoin="round"/>
<path d="M55.3043 43.3596C56.2424 43.6079 57.1667 43.8562 58.1048 44.0907C57.9255 43.2768 58.0359 40.7936 56.946 40.6418C55.9803 40.5039 54.7801 43.2078 55.3181 43.3458L55.3043 43.3596Z" stroke="#FFF6EF" stroke-width="0.21" stroke-linecap="round" stroke-linejoin="round"/>
<path d="M33.3004 49.6227C33.3004 49.6227 34.1695 48.5191 35.2594 47.1395C36.501 45.5944 38.0323 43.6906 38.9566 42.5318C39.2739 42.1455 39.5084 41.842 39.6602 41.6627C39.8395 41.4557 40.3637 41.097 41.1363 40.6418C42.3779 39.9106 44.2541 38.9449 46.3648 37.924C46.7097 37.7585 47.0546 37.593 47.4133 37.4136L47.7858 37.2481C48.5169 36.9032 49.2619 36.5583 50.0068 36.2272C50.0758 36.1996 50.131 36.172 50.2 36.1444C51.0139 35.7719 51.8279 35.4133 52.6142 35.0684C52.7246 35.027 52.8349 34.9856 52.9315 34.9442C53.6213 34.6407 54.2835 34.3648 54.9181 34.1165C55.7734 33.7716 56.5873 33.4543 57.3185 33.1922C57.7462 33.0404 58.1462 32.9025 58.5049 32.7921C58.9326 32.6541 59.3327 32.5024 59.6913 32.3092C59.7327 32.2955 59.7603 32.2817 59.8017 32.2403C60.864 31.7298 61.6365 31.0263 62.2021 30.2951C62.9057 29.3846 63.2782 28.4051 63.4713 27.5912C63.5403 27.3152 63.5817 27.0531 63.6093 26.8324C63.6369 26.6806 63.6507 26.5427 63.6645 26.4185C63.6921 26.0185 63.6783 25.7839 63.6783 25.7839C63.6783 25.7839 63.0989 26.0047 62.1745 26.3496C62.147 26.3496 62.1194 26.3634 62.0918 26.3771C61.9538 26.4323 61.8159 26.4737 61.6779 26.5289L61.5951 26.5703L61.2227 26.6944C60.9054 26.8186 60.5605 26.9428 60.2018 27.0669C58.8222 27.5636 57.2219 28.1292 55.6906 28.6258C54.8077 28.9155 53.9524 29.1914 53.1798 29.426C52.0624 29.7571 51.1243 29.9916 50.5587 30.0606C50.5311 30.0606 50.5035 30.0744 50.4621 30.0744C49.7447 30.1709 48.5031 30.4882 47.0546 30.8883C45.5509 31.3298 43.7988 31.8678 42.1296 32.3782C39.6326 33.1646 37.3287 33.8819 36.3354 34.1165C36.2251 34.1441 36.1285 34.1717 36.0457 34.1854C35.5215 34.282 34.0729 35.3995 32.2657 36.9997C28.2788 40.559 22.4984 46.4911 20.912 49.0019C18.6219 52.6715 20.7602 57.0999 20.7602 57.0999C20.7602 57.0999 20.4015 62.9079 21.4914 64.0115C21.4914 64.0115 21.0499 68.4951 22.2639 69.4883C22.8709 69.985 26.8441 75.8619 30.7068 81.9044C34.4454 87.7399 38.1013 93.7272 38.5841 95.2309C39.5636 98.2935 39.7843 109.095 40.1154 111.661C40.5017 114.696 63.5541 116.697 67.3893 111.22C67.3893 111.22 63.1954 96.5001 67.3893 86.0293C67.748 85.1463 68.0101 84.0289 68.217 82.7183C69.3207 75.5584 68.2308 62.9216 66.2442 53.6786C65.9683 52.3542 65.651 51.1402 65.3061 50.0918C64.5888 47.8845 64.3267 45.4702 64.3818 43.056C64.4784 37.4412 65.9407 32.2541 66.9892 29.2742" stroke="#3A5151" stroke-width="0.5" stroke-linecap="round" stroke-linejoin="round"/>
<path d="M41.0673 53.8993C41.0673 53.8993 41.0811 53.8993 41.0949 53.8993C41.1363 53.8993 41.1639 53.9131 41.1915 53.9131C42.4744 54.1339 53.6765 56.0928 58.7256 55.7755C61.3882 55.61 62.6436 54.2856 63.2368 53.0026C63.4437 52.5612 63.5679 52.1197 63.6507 51.7334C63.7886 51.0299 63.2644 50.3677 62.5608 50.2987C59.65 50.009 52.3797 49.2226 51.1657 48.4363C50.4759 47.9948 48.7514 47.2637 46.8063 46.698C46.1855 46.5187 45.5509 46.3532 44.9301 46.2152C44.7507 46.1738 44.5576 46.1324 44.3782 46.1048C44.1023 46.0496 43.8402 46.0083 43.5919 45.9807C42.2951 45.8013 41.1225 45.8013 40.3223 46.1324L40.1154 46.2152C39.0945 46.6567 37.4804 47.443 35.618 48.4225C34.8869 48.8088 34.1005 49.195 33.3004 49.6089C27.7959 52.4232 21.312 55.7204 20.8844 57.1413" stroke="#3A5151" stroke-width="0.5" stroke-linecap="round" stroke-linejoin="round"/>
<path d="M31.0103 68.9366C33.3142 68.8262 37.4667 62.3699 39.6602 61.487C41.8536 60.6178 47.2201 64.8807 53.5799 65.7636C58.2704 66.412 60.0914 63.8874 60.726 62.5216C60.9191 62.094 60.7122 61.5973 60.2708 61.4318C56.8357 60.1902 42.8607 55.0996 41.4122 54.0373C41.3432 53.996 41.2742 53.9546 41.1915 53.927C41.1639 53.927 41.1363 53.9132 41.0949 53.9132C38.8324 53.5821 30.5551 60.1764 28.265 60.066C25.8646 59.9557 21.7811 62.2733 21.4776 64.0116" stroke="#3A5151" stroke-width="0.5" stroke-linecap="round" stroke-linejoin="round"/>
<path d="M37.9081 62.908C37.9081 62.908 37.577 65.3222 41.964 67.6123C46.351 69.9023 55.4423 80.5387 55.87 86.8985" stroke="#3A5151" stroke-width="0.5" stroke-linecap="round" stroke-linejoin="round"/>
<path d="M57.622 28.2257C57.622 28.2257 57.9531 29.55 59.2913 29.688C60.6294 29.826 63.154 27.5635 63.2782 26.5012" stroke="#3A5151" stroke-width="0.5" stroke-linecap="round" stroke-linejoin="round"/>
<path d="M56.9598 49.9124C56.9598 49.9124 57.0288 52.4369 59.6913 52.4369C62.3539 52.4369 63.4161 52.1748 63.4161 52.1748" stroke="#3A5151" stroke-width="0.5" stroke-linecap="round" stroke-linejoin="round"/>
<path d="M55.4285 59.9556C55.4285 59.9556 55.5665 63.0182 57.7599 63.0182C59.9534 63.0182 60.726 62.5215 60.726 62.5215" stroke="#3A5151" stroke-width="0.5" stroke-linecap="round" stroke-linejoin="round"/>
<path d="M44.9025 3.03491C44.7231 12.3331 44.0885 21.6038 42.9849 30.8468C43.1504 21.5486 43.7988 12.278 44.9025 3.03491Z" fill="#293A3A"/>
<path d="M58.7256 11.7539C56.5046 18.0171 53.8558 24.101 50.7794 29.9917C53.0005 23.7285 55.6492 17.6446 58.7256 11.7539Z" fill="#293A3A"/>
</g>
<path d="M7.7656 20.9521C7.58005 21.3229 7.12944 21.4818 6.75835 21.3096C6.38726 21.1375 6.22822 20.674 6.40051 20.3033C6.58605 19.9325 7.03667 19.7736 7.40776 19.959C7.77885 20.1444 7.93789 20.5946 7.7656 20.9654" fill="#3A5151"/>
<path d="M8.34874 26.54C8.2162 26.8048 7.89812 26.924 7.63306 26.7916C7.36799 26.6592 7.26197 26.3414 7.38125 26.0766C7.51378 25.8117 7.83186 25.7058 8.09693 25.825C8.36199 25.9574 8.46802 26.2752 8.34874 26.54Z" fill="#3A5151"/>
<path d="M17.4007 21.6407C17.1357 22.1836 16.4863 22.4087 15.9561 22.1439C15.4127 21.8791 15.1874 21.2303 15.4525 20.7006C15.7176 20.1577 16.367 19.9326 16.8971 20.1975C17.4405 20.4623 17.6658 21.1111 17.4007 21.6407Z" fill="#3A5151"/>
<path d="M0.953437 29.1617C1.4173 29.5589 2.09322 30.274 2.31852 31.2273C2.70287 30.7242 3.32577 30.0356 4.12097 29.5325C3.77638 29.1352 3.17999 28.3407 3.06071 27.3212C2.57034 27.9568 1.8149 28.7909 0.953437 29.1749M2.05346 32.2999C2.05346 32.2999 2.0402 32.2999 2.02695 32.2999C1.90767 32.2601 1.8149 32.141 1.82815 32.0086C1.92093 30.4461 0.224509 29.3206 0.198002 29.3074C0.105229 29.2411 0.0522162 29.122 0.0787227 29.016C0.105229 28.8969 0.184749 28.8174 0.304028 28.7909C1.78839 28.4996 3.15348 26.2089 3.16673 26.1824C3.233 26.0633 3.39204 26.0103 3.52457 26.0633C3.6571 26.1162 3.72337 26.2486 3.69686 26.3943C3.32577 28.0494 4.77038 29.3736 4.79688 29.3868C4.86315 29.453 4.90291 29.5457 4.88965 29.6384C4.88965 29.7311 4.82339 29.8105 4.74387 29.8502C3.33902 30.605 2.38479 32.1675 2.38479 32.1807C2.31852 32.2866 2.19924 32.3396 2.07996 32.3131" fill="#3A5151"/>
<path d="M11.1054 18.2112C11.3838 18.4628 11.7151 18.86 11.8874 19.3632C12.1392 19.0586 12.4838 18.7011 12.9079 18.4098C12.6958 18.145 12.4043 17.7213 12.285 17.1784C11.9802 17.5491 11.5693 17.9728 11.0922 18.2112M11.6356 20.3695C11.6356 20.3695 11.6223 20.3695 11.6091 20.3695C11.4898 20.3298 11.397 20.2106 11.4103 20.0782C11.4765 19.0851 10.3765 18.3701 10.3633 18.3568C10.2705 18.2906 10.2175 18.1715 10.244 18.0655C10.2705 17.9464 10.35 17.8669 10.4693 17.8404C11.2645 17.6815 12.0729 16.556 12.3115 16.1456C12.3778 16.0264 12.5235 15.9734 12.6693 16.0264C12.8019 16.0794 12.8681 16.2118 12.8416 16.3574C12.6031 17.4035 13.5308 18.2509 13.544 18.2642C13.6103 18.3304 13.6501 18.4231 13.6368 18.5025C13.6368 18.5952 13.5705 18.6746 13.491 18.7144C12.5765 19.2043 11.9536 20.2239 11.9536 20.2371C11.8874 20.343 11.7681 20.396 11.6488 20.3695" fill="#3A5151"/>
<path d="M12.3777 28.672C12.6958 28.9633 13.0934 29.4267 13.279 30.0093C13.5573 29.6651 13.9681 29.2413 14.4585 28.9103C14.2199 28.619 13.8621 28.1158 13.7428 27.4802C13.3982 27.904 12.9211 28.4071 12.3645 28.6852M13.0404 31.0289C13.0404 31.0289 13.0271 31.0289 13.0139 31.0289C12.8946 30.9892 12.8018 30.87 12.8151 30.7376C12.8814 29.6253 11.6621 28.8176 11.6488 28.8176C11.556 28.7514 11.503 28.6322 11.5295 28.5263C11.556 28.4071 11.6356 28.3277 11.7548 28.3012C12.8151 28.0893 13.7958 26.4342 13.8091 26.421C13.8754 26.3018 14.0344 26.2488 14.1537 26.3018C14.2862 26.3547 14.3525 26.4872 14.326 26.6328C14.0609 27.8113 15.0947 28.7514 15.1079 28.7646C15.1742 28.8309 15.2139 28.9235 15.2007 29.0162C15.2007 29.1089 15.1344 29.1884 15.0549 29.2281C14.0476 29.771 13.3452 30.9097 13.3452 30.9097C13.279 31.0157 13.1597 31.0686 13.0404 31.0421" fill="#3A5151"/>
<defs>
<clipPath id="clip0_1_266">
<rect width="74.6755" height="115" fill="white" transform="translate(12)"/>
</clipPath>
</defs>
</svg>
