<svg width="79" height="115" viewBox="0 0 79 115" fill="none" xmlns="http://www.w3.org/2000/svg">
<g clip-path="url(#clip0_1_238)">
<path d="M50.8211 28.8262C49.7476 27.7801 49.5091 25.6483 49.4958 24.2314C49.8139 24.2314 50.1187 24.2314 50.4235 24.2447L53.4453 29.038C53.4453 29.038 52.5043 30.4813 50.8211 28.8262Z" fill="#F8CCCB"/>
<path d="M53.8429 29.594C52.5441 27.4092 51.4175 25.5025 50.6753 24.2578C51.8416 24.3108 52.9682 24.4564 54.0682 24.6683C53.5778 27.0385 53.7899 29.2233 53.8429 29.594Z" fill="#F8CCCB"/>
<path d="M36.5076 46.8474L36.0703 40.9683C36.0703 40.9683 41.133 44.3051 41.7161 44.8612C42.3788 45.51 44.3138 48.1715 45.2017 51.2567C45.8512 53.5077 45.6126 56.487 45.6126 56.487C47.1897 60.0356 39.7414 64.8025 38.3366 63.4651C37.3691 62.5382 37.4088 58.6983 37.1438 55.4144C36.7594 52.0114 36.4148 48.582 36.4944 47.4035C36.5076 47.2181 36.5076 47.0327 36.5076 46.8474Z" fill="#F8CCCB"/>
<path d="M56.8779 49.9325C54.9694 47.9331 52.7296 45.7483 50.7284 43.8548C50.5826 44.2256 50.0392 45.2452 48.2367 44.4639C46.315 43.6297 45.4668 40.2002 45.2945 39.4455C45.2283 39.4587 45.1752 39.4985 45.1222 39.5382L33.5654 32.0569C33.4064 31.951 33.2341 31.9245 33.075 31.9774L38.8534 35.738C38.8534 35.738 38.2968 37.8565 36.1233 36.9164C34.2678 36.1219 33.1678 32.9705 32.8895 32.0569C32.7569 32.1231 32.6642 32.2555 32.6244 32.4276C32.5184 32.9043 32.4256 33.5664 32.4389 34.3211C32.3063 34.3609 32.0413 34.4668 31.6967 34.7184C31.0605 35.2215 30.2123 36.2676 29.8147 38.4392C29.2713 41.4184 29.4436 51.3494 29.1786 57.0431C29.1123 58.4599 29.0195 59.6119 28.887 60.3269C28.2111 63.9682 26.3424 77.567 29.4701 83.4064C30.3183 84.9953 30.7292 87.5376 30.822 90.4507C20.3519 85.1145 12.3867 74.5215 11.1409 62.8427C11.0216 61.7834 10.9686 60.7241 10.9686 59.6516C10.9686 48.1979 19.2784 36.9694 29.9605 30.3355C35.7654 26.7074 42.2728 24.4564 48.5283 24.2578C47.5078 25.807 46.368 28.3626 47.415 31.1697C49.0982 35.738 51.6428 38.9423 51.6428 38.9423C51.6428 38.9423 55.0224 46.0396 56.0429 47.2313L56.8779 49.9325Z" fill="#F8CCCB"/>
<path d="M78.6397 61.4788C78.6397 76.7327 67.719 89.537 53.4188 93.0724C54.267 91.5231 55.208 89.9209 56.202 88.1334C60.7743 79.8576 63.1467 63.9682 63.1467 63.9682C63.1467 63.9682 65.3467 48.5819 63.478 45.7085C63.3322 45.4834 63.1202 45.1524 62.8683 44.7419C61.8346 41.1403 61.1587 33.1161 60.8141 27.0781C72.0529 33.0764 78.6397 47.6417 78.6397 61.4788Z" fill="#F8CCCB"/>
<path d="M53.8429 29.647V29.6073C53.7899 29.2233 53.5778 27.0385 54.0682 24.6683C54.6381 21.9539 56.1489 19.0276 59.9129 18.392C60.1779 18.3523 60.443 18.5641 60.4562 18.8422C60.496 20.0604 60.602 23.2648 60.8141 27.0782C61.1587 33.1162 61.8346 41.1404 62.8683 44.742C62.8683 44.7685 62.8816 44.7818 62.8816 44.8082" stroke="#3A5151" stroke-width="0.5" stroke-linecap="round" stroke-linejoin="round"/>
<path d="M56.8779 49.9326L56.0429 47.2313C55.0224 46.0396 51.6428 38.9423 51.6428 38.9423C51.6428 38.9423 49.0982 35.738 47.415 31.1697C46.368 28.3626 47.5078 25.8071 48.5283 24.2578C48.7669 23.9003 49.0054 23.5958 49.2042 23.3574C49.297 23.2515 49.403 23.1853 49.5223 23.1456C49.5886 23.1323 49.6548 23.1323 49.7211 23.1323C49.9067 23.1456 50.0922 23.2515 50.1982 23.4369C50.3308 23.662 50.4898 23.94 50.6753 24.2578C51.4175 25.5025 52.5441 27.4092 53.8429 29.6073C57.461 35.7115 62.3382 43.9475 63.478 45.7086C65.3467 48.582 63.1467 63.9683 63.1467 63.9683C63.1467 63.9683 60.7743 79.8577 56.202 88.1335C55.208 89.921 54.267 91.5232 53.4188 93.0724C50.3308 98.647 48.3825 103.546 49.4428 114.669C43.1285 114.613 30.1 113.7 28.5 110.5" stroke="#3A5151" stroke-width="0.5" stroke-linecap="round" stroke-linejoin="round"/>
<path d="M63.1467 63.9683C63.1467 63.9683 62.4707 58.9764 61.1189 55.3483C60.6948 54.2228 58.9984 52.1836 56.8779 49.9326C54.9694 47.9332 52.7296 45.7484 50.7284 43.8549C50.2645 43.4179 49.8006 42.9942 49.3633 42.597C47.9982 41.2993 46.8319 40.24 46.1162 39.6045C45.9174 39.4191 45.6524 39.3529 45.4138 39.4191C45.374 39.4191 45.3343 39.4323 45.2945 39.4456C45.2283 39.4456 45.1752 39.4985 45.1222 39.5383C45.0162 39.6045 44.9234 39.6971 44.8572 39.8296C44.062 41.392 42.8957 44.848 45.374 48.582C48.7669 53.6534 53.0742 54.1566 53.4188 57.6258C53.7501 61.095 54.1742 65.1468 51.2187 67.6891C48.25 70.2182 41.9149 76.0443 42.4981 81.7115" stroke="#3A5151" stroke-width="0.5" stroke-linecap="round" stroke-linejoin="round"/>
<path d="M35.9377 40.8228C35.9377 40.8228 36.5739 44.2523 36.5076 46.8343C36.5076 47.0329 36.5076 47.2183 36.5076 47.4037C36.4281 48.5821 36.7727 52.0116 37.157 55.4146C37.6474 59.5326 38.204 63.6242 38.204 63.6242C39.8872 64.1273 44.4596 61.4261 45.3078 59.7445C46.156 58.0496 45.3078 52.2102 45.3873 51.4555C45.4801 50.7007 41.9282 44.8614 41.9282 44.8614C41.9282 44.8614 41.8354 44.5303 36.2558 40.8095C33.2208 38.7836 32.4919 36.2281 32.4521 34.3214C32.4389 33.5666 32.5316 32.9045 32.6377 32.4279C32.6774 32.2557 32.7702 32.1233 32.9027 32.0571C32.9557 32.0174 33.022 31.9909 33.0883 31.9777C33.2473 31.9247 33.4196 31.9512 33.5786 32.0571L45.1355 39.5384" stroke="#3A5151" stroke-width="0.5" stroke-linecap="round" stroke-linejoin="round"/>
<path d="M28.2111 110.286C29.1918 108.446 31.0738 98.1703 30.822 90.4507C30.7292 87.5376 30.3183 84.9953 29.4701 83.4064C26.3424 77.567 28.2111 63.9683 28.887 60.3269C29.0195 59.6119 29.1123 58.4599 29.1786 57.0431C29.4436 51.3494 29.2713 41.4185 29.8147 38.4392C30.2123 36.2676 31.0605 35.2216 31.6967 34.7184C32.0413 34.4668 32.3063 34.3609 32.4389 34.3212C32.4919 34.2947 32.5184 34.2947 32.5184 34.2947" stroke="#3A5151" stroke-width="0.5" stroke-linecap="round" stroke-linejoin="round"/>
<path d="M60.7213 18.829C60.7213 18.5376 60.3767 18.3788 60.1514 18.5774C59.1707 19.4248 57.302 21.5037 57.9911 24.483C58.8924 28.4553 60.8804 26.3632 60.8804 26.3632L60.7213 18.8422V18.829Z" fill="#3A5151"/>
<path d="M53.4453 29.0381C53.4453 29.0381 52.5043 30.4814 50.8211 28.8262C49.7476 27.7802 49.5091 25.6483 49.4958 24.2315C49.4958 23.7681 49.5091 23.3841 49.5223 23.1457C49.5356 22.9736 49.5488 22.8677 49.5488 22.8677L49.7211 23.1325L50.4235 24.2448L53.4453 29.0381Z" fill="#3A5151"/>
<path d="M50.7681 43.7226C50.7681 43.7226 50.7549 43.7756 50.7284 43.855C50.5826 44.2258 50.0392 45.2454 48.2367 44.4641C46.315 43.6299 45.4668 40.2005 45.2945 39.4457C45.2813 39.353 45.268 39.3 45.268 39.3L45.4138 39.4192L49.3633 42.5971L50.7681 43.7226Z" fill="#3A5151"/>
<path d="M38.8534 35.7381C38.8534 35.7381 38.2968 37.8567 36.1233 36.9165C34.2678 36.1221 33.1678 32.9706 32.8895 32.057C32.8365 31.8981 32.81 31.8054 32.81 31.8054L33.075 31.9776L38.8534 35.7381Z" fill="#3A5151"/>
<path d="M40.5896 57.9966C37.7402 50.6742 28.5424 26.9327 25.4809 19.0674C25.4809 19.0674 36.8787 47.0858 36.7329 46.7548L41.2125 57.745C41.3848 58.1422 40.7487 58.3938 40.6029 57.9833L40.5896 57.9966Z" fill="#3A5151"/>
<path d="M45.5463 56.8314C43.9162 55.825 41.9415 55.4278 39.8872 55.3483C38.986 55.3086 38.0582 55.3483 37.1438 55.4145C35.4208 55.547 33.7244 55.8118 32.2136 56.0634C31.4714 56.1825 30.4376 56.5401 29.1786 57.0432C24.7122 58.8043 17.4759 62.3 11.1409 62.8429C7.52274 63.1474 4.19617 62.4854 1.83709 59.996C-5.98233 49.4428 18.5504 33.7726 28 26C28.7024 25.4306 30.4831 23.9634 31 23.5C34.8567 20.0838 35.4208 13.3869 30.2786 9.79854C22.8833 4.64771 9.25892 13.5458 3.20218 17.836" stroke="#3A5151" stroke-width="0.5" stroke-linecap="round" stroke-linejoin="round"/>
<path d="M62.9214 65.7029C65.9563 69.1324 69.1901 75.1439 68.7793 79.6989C68.3684 84.2538 67.4805 92.1324 56.0562 100.117" stroke="#3A5151" stroke-width="0.5" stroke-linecap="round" stroke-linejoin="round"/>
<path d="M46.7656 4.95211C46.5801 5.32287 46.1295 5.48176 45.7584 5.30962C45.3873 5.13749 45.2282 4.67405 45.4005 4.30329C45.5861 3.93254 46.0367 3.77364 46.4078 3.95902C46.7789 4.1444 46.9379 4.5946 46.7656 4.96535" fill="#3A5151"/>
<path d="M47.3488 10.54C47.2162 10.8048 46.8982 10.924 46.6331 10.7916C46.368 10.6592 46.262 10.3414 46.3813 10.0766C46.5138 9.81175 46.8319 9.70582 47.097 9.82499C47.362 9.9574 47.468 10.2752 47.3488 10.54Z" fill="#3A5151"/>
<path d="M56.4008 5.64075C56.1357 6.18364 55.4863 6.40874 54.9562 6.14391C54.4128 5.87909 54.1875 5.23027 54.4525 4.70062C54.7176 4.15773 55.367 3.93263 55.8971 4.19745C56.4405 4.46228 56.6658 5.1111 56.4008 5.64075Z" fill="#3A5151"/>
<path d="M39.9535 13.1617C40.4173 13.5589 41.0932 14.274 41.3186 15.2273C41.7029 14.7242 42.3258 14.0356 43.121 13.5325C42.7764 13.1352 42.18 12.3407 42.0607 11.3212C41.5704 11.9568 40.8149 12.7909 39.9535 13.1749M41.0535 16.2999C41.0535 16.2999 41.0402 16.2999 41.027 16.2999C40.9077 16.2601 40.8149 16.141 40.8282 16.0086C40.921 14.4461 39.2245 13.3206 39.198 13.3074C39.1053 13.2411 39.0522 13.122 39.0788 13.016C39.1053 12.8969 39.1848 12.8174 39.3041 12.7909C40.7884 12.4996 42.1535 10.2089 42.1668 10.1824C42.233 10.0633 42.3921 10.0103 42.5246 10.0633C42.6571 10.1162 42.7234 10.2486 42.6969 10.3943C42.3258 12.0494 43.7704 13.3736 43.7969 13.3868C43.8632 13.453 43.9029 13.5457 43.8897 13.6384C43.8897 13.7311 43.8234 13.8105 43.7439 13.8502C42.3391 14.605 41.3848 16.1675 41.3848 16.1807C41.3186 16.2866 41.1993 16.3396 41.08 16.3131" fill="#3A5151"/>
<path d="M50.1055 2.21119C50.3838 2.46277 50.7151 2.86001 50.8874 3.36318C51.1392 3.05863 51.4838 2.70112 51.9079 2.40981C51.6959 2.14499 51.4043 1.72127 51.285 1.17838C50.9802 1.54913 50.5693 1.97285 50.0922 2.21119M50.6356 4.36951C50.6356 4.36951 50.6223 4.36951 50.6091 4.36951C50.4898 4.32979 50.397 4.21062 50.4103 4.0782C50.4766 3.08511 49.3765 2.37009 49.3633 2.35684C49.2705 2.29064 49.2175 2.17147 49.244 2.06554C49.2705 1.94637 49.35 1.86692 49.4693 1.84044C50.2645 1.68154 51.073 0.556039 51.3115 0.145561C51.3778 0.0263901 51.5236 -0.0265747 51.6693 0.0263901C51.8019 0.079355 51.8681 0.211767 51.8416 0.357421C51.6031 1.40348 52.5308 2.25092 52.5441 2.26416C52.6103 2.33036 52.6501 2.42305 52.6368 2.5025C52.6368 2.59519 52.5706 2.67463 52.4911 2.71436C51.5766 3.20428 50.9537 4.22386 50.9537 4.2371C50.8874 4.34303 50.7681 4.39599 50.6489 4.36951" fill="#3A5151"/>
<path d="M51.3778 12.672C51.6958 12.9633 52.0934 13.4267 52.279 14.0093C52.5573 13.6651 52.9682 13.2413 53.4585 12.9103C53.22 12.619 52.8621 12.1158 52.7429 11.4802C52.3983 11.904 51.9211 12.4071 51.3645 12.6852M52.0404 15.0289C52.0404 15.0289 52.0272 15.0289 52.0139 15.0289C51.8946 14.9892 51.8019 14.87 51.8151 14.7376C51.8814 13.6253 50.6621 12.8176 50.6488 12.8176C50.5561 12.7514 50.5031 12.6322 50.5296 12.5263C50.5561 12.4071 50.6356 12.3277 50.7549 12.3012C51.8151 12.0893 52.7959 10.4342 52.8091 10.421C52.8754 10.3018 53.0344 10.2488 53.1537 10.3018C53.2862 10.3547 53.3525 10.4872 53.326 10.6328C53.0609 11.8113 54.0947 12.7514 54.1079 12.7646C54.1742 12.8309 54.214 12.9235 54.2007 13.0162C54.2007 13.1089 54.1344 13.1884 54.0549 13.2281C53.0477 13.771 52.3453 14.9097 52.3453 14.9097C52.279 15.0157 52.1597 15.0686 52.0404 15.0421" fill="#3A5151"/>
</g>
<defs>
<clipPath id="clip0_1_238">
<rect width="79" height="115" fill="white"/>
</clipPath>
</defs>
</svg>
